<mxfile host="app.diagrams.net" modified="2024-01-25T07:52:46.610Z" agent="Mozilla/5.0 (Windows NT 10.0; Win64; x64) AppleWebKit/537.36 (KHTML, like Gecko) Chrome/116.0.0.0 Safari/537.36" etag="fLgxcTZJupm_LBLsD_RR" version="22.1.21" type="github">
  <diagram id="ce7KVpuCOsO71Bol8VlQ" name="Page-1">
    <mxGraphModel dx="990" dy="344" grid="1" gridSize="10" guides="1" tooltips="1" connect="1" arrows="1" fold="1" page="1" pageScale="1" pageWidth="827" pageHeight="1169" math="0" shadow="0">
      <root>
        <mxCell id="0" />
        <mxCell id="1" parent="0" />
        <mxCell id="Pn8fTQrSeP5vRvdxLiqo-7" style="edgeStyle=orthogonalEdgeStyle;rounded=0;orthogonalLoop=1;jettySize=auto;html=1;entryX=0.632;entryY=-0.075;entryDx=0;entryDy=0;entryPerimeter=0;" parent="1" source="Pn8fTQrSeP5vRvdxLiqo-1" target="Pn8fTQrSeP5vRvdxLiqo-5" edge="1">
          <mxGeometry relative="1" as="geometry">
            <Array as="points">
              <mxPoint x="332" y="155" />
            </Array>
          </mxGeometry>
        </mxCell>
        <mxCell id="Pn8fTQrSeP5vRvdxLiqo-9" style="edgeStyle=orthogonalEdgeStyle;rounded=0;orthogonalLoop=1;jettySize=auto;html=1;entryX=0.414;entryY=0;entryDx=0;entryDy=0;entryPerimeter=0;" parent="1" source="Pn8fTQrSeP5vRvdxLiqo-1" target="Pn8fTQrSeP5vRvdxLiqo-4" edge="1">
          <mxGeometry relative="1" as="geometry">
            <mxPoint x="14" y="190" as="targetPoint" />
            <Array as="points">
              <mxPoint x="66" y="155" />
            </Array>
          </mxGeometry>
        </mxCell>
        <mxCell id="Pn8fTQrSeP5vRvdxLiqo-1" value="Height &amp;gt; 120cm?" style="rhombus;whiteSpace=wrap;html=1;" parent="1" vertex="1">
          <mxGeometry x="117" y="110" width="160" height="90" as="geometry" />
        </mxCell>
        <mxCell id="Pn8fTQrSeP5vRvdxLiqo-3" style="edgeStyle=orthogonalEdgeStyle;rounded=0;orthogonalLoop=1;jettySize=auto;html=1;" parent="1" source="Pn8fTQrSeP5vRvdxLiqo-2" target="Pn8fTQrSeP5vRvdxLiqo-1" edge="1">
          <mxGeometry relative="1" as="geometry" />
        </mxCell>
        <mxCell id="Pn8fTQrSeP5vRvdxLiqo-2" value="Start" style="rounded=1;whiteSpace=wrap;html=1;fillColor=#d5e8d4;strokeColor=#82b366;" parent="1" vertex="1">
          <mxGeometry x="137" y="20" width="120" height="40" as="geometry" />
        </mxCell>
        <mxCell id="Pn8fTQrSeP5vRvdxLiqo-4" value="Can&#39;t ride" style="rounded=1;whiteSpace=wrap;html=1;" parent="1" vertex="1">
          <mxGeometry x="30" y="210" width="87" height="40" as="geometry" />
        </mxCell>
        <mxCell id="Pn8fTQrSeP5vRvdxLiqo-5" value="Can ride" style="rounded=1;whiteSpace=wrap;html=1;" parent="1" vertex="1">
          <mxGeometry x="277" y="210" width="87" height="40" as="geometry" />
        </mxCell>
        <mxCell id="Pn8fTQrSeP5vRvdxLiqo-10" value="No" style="text;html=1;align=center;verticalAlign=middle;resizable=0;points=[];autosize=1;" parent="1" vertex="1">
          <mxGeometry x="87" y="139" width="30" height="20" as="geometry" />
        </mxCell>
        <mxCell id="Pn8fTQrSeP5vRvdxLiqo-11" value="Yes" style="text;html=1;align=center;verticalAlign=middle;resizable=0;points=[];autosize=1;" parent="1" vertex="1">
          <mxGeometry x="284" y="139" width="40" height="20" as="geometry" />
        </mxCell>
        <mxCell id="jEc_SQyskPwoNgXDxVvE-1" value="Text" style="text;strokeColor=none;fillColor=none;html=1;align=center;verticalAlign=middle;whiteSpace=wrap;rounded=0;fontSize=16;" parent="1" vertex="1">
          <mxGeometry x="380" y="170" width="60" height="30" as="geometry" />
        </mxCell>
        <mxCell id="jEc_SQyskPwoNgXDxVvE-2" value="Text" style="text;strokeColor=none;fillColor=none;html=1;align=center;verticalAlign=middle;whiteSpace=wrap;rounded=0;fontSize=16;" parent="1" vertex="1">
          <mxGeometry x="380" y="170" width="60" height="30" as="geometry" />
        </mxCell>
      </root>
    </mxGraphModel>
  </diagram>
</mxfile>
